<?xml version="1.0" encoding="UTF-8"?>
<svg width="512px" height="512px" viewBox="0 0 512 512" version="1.1" xmlns="http://www.w3.org/2000/svg" xmlns:xlink="http://www.w3.org/1999/xlink">
    <!-- Generator: Sketch 52.2 (67145) - http://www.bohemiancoding.com/sketch -->
    <title>exit</title>
    <desc>Created with Sketch.</desc>
    <g id="Page-1" stroke="none" stroke-width="1" fill="none" fill-rule="evenodd">
        <g id="exit" transform="translate(10.000000, 0.000000)" fill="#E7C296">
            <path d="M246.04119,242.526316 C270.342401,242.526316 290.562929,222.778743 290.562929,198.426457 L290.562929,44.0884045 C290.562929,19.7475732 270.342401,0 246.04119,0 C221.739979,0 201.519451,19.7475732 201.519451,44.0884045 L201.519451,198.437911 C201.530881,222.778743 221.739979,242.526316 246.04119,242.526316 Z" id="Path"></path>
            <path d="M340.955913,37.7030054 C335.467666,35.4164654 329.203534,36.0223985 324.228741,39.3264488 C319.276768,42.6304991 316.298738,48.1982241 316.298738,54.1660935 L316.298738,112.621489 C316.298738,119.023801 319.733171,124.923074 325.244238,128.101365 C373.075279,155.619874 404.179149,206.804072 404.179149,265.282333 C404.179149,352.788219 333.242701,423.991075 245.921384,423.991075 C158.588657,423.991075 87.7777204,352.788219 87.7777204,265.282333 C87.7777204,206.826937 119.874266,155.654172 166.860962,128.12423 C172.314979,124.934507 175.680952,119.046666 175.680952,112.71295 L175.680952,54.1546608 C175.680952,48.1982241 172.702922,42.6190664 167.750948,39.3150161 C162.787565,35.9995331 156.523433,35.4050327 151.023776,37.6915727 C61.7513354,75.0079057 0,162.84534 0,265.282333 C0,401.560117 110.141471,512 246.138176,512 C382.11206,512 492.08238,401.560117 492.08238,265.282333 C492.07097,162.84534 430.262584,75.0079057 340.955913,37.7030054 Z" id="Path"></path>
        </g>
    </g>
</svg>